<?xml version="1.0" encoding="UTF-8" standalone="no"?><!DOCTYPE svg PUBLIC "-//W3C//DTD SVG 1.1//EN" "http://www.w3.org/Graphics/SVG/1.1/DTD/svg11.dtd"><svg width="100%" height="100%" viewBox="0 0 1000 1000" version="1.1" xmlns="http://www.w3.org/2000/svg" xmlns:xlink="http://www.w3.org/1999/xlink" xml:space="preserve" xmlns:serif="http://www.serif.com/" style="fill-rule:evenodd;clip-rule:evenodd;stroke-linecap:square;stroke-miterlimit:1.5;"><rect id="Fundo" x="0" y="0" width="1000" height="1000" style="fill:#111624;"/><path id="Luz-base" serif:id="Luz base" d="M660.011,759.794l0,214.075c0,3.771 -3.061,6.832 -6.832,6.832l-295.669,0c-3.771,0 -6.832,-3.061 -6.832,-6.832l0,-214.075c0,-3.771 3.061,-6.832 6.832,-6.832l295.669,0c3.771,0 6.832,3.061 6.832,6.832Z" style="fill:#66f3ff;fill-opacity:0;"/><path id="Luz-corpo" serif:id="Luz corpo" d="M675.333,79.523l0,674.033c0,5.806 -4.714,10.52 -10.52,10.52l-329.627,0c-5.806,0 -10.52,-4.714 -10.52,-10.52l0,-674.033c0,-5.806 4.714,-10.52 10.52,-10.52l329.627,0c5.806,0 10.52,4.714 10.52,10.52Z" style="fill:#66f3ff;fill-opacity:0;"/><path id="luz-misula-para-raio-esquerda" serif:id="luz misula para raio esquerda" d="M376.738,24.287l0,113.165c0,3.47 -2.817,6.287 -6.287,6.287l-176.292,0c-3.47,0 -6.287,-2.817 -6.287,-6.287l0,-113.165c0,-3.47 2.817,-6.287 6.287,-6.287l176.292,0c3.47,0 6.287,2.817 6.287,6.287Z" style="fill:#66f3ff;fill-opacity:0;"/><path id="luz-misula-para-raio-direita" serif:id="luz misula para raio direita" d="M832.866,6.287l0,113.165c0,3.47 -2.817,6.287 -6.287,6.287l-176.292,0c-3.47,0 -6.287,-2.817 -6.287,-6.287l0,-113.165c0,-3.47 2.817,-6.287 6.287,-6.287l176.292,0c3.47,0 6.287,2.817 6.287,6.287Z" style="fill:#66f3ff;fill-opacity:0;"/><path id="luz-misulaisolador-direito" serif:id="luz misulaisolador direito" d="M854.606,127.617l0,113.165c0,3.47 -2.817,6.287 -6.287,6.287l-176.292,0c-3.47,0 -6.287,-2.817 -6.287,-6.287l0,-113.165c0,-3.47 2.817,-6.287 6.287,-6.287l176.292,0c3.47,0 6.287,2.817 6.287,6.287Z" style="fill:#66f3ff;fill-opacity:0;"/><path id="luz-misulai-solador-esquerdo" serif:id="luz misulai solador esquerdo" d="M336.738,131.36l0,113.165c0,3.47 -2.817,6.287 -6.287,6.287l-176.292,0c-3.47,0 -6.287,-2.817 -6.287,-6.287l0,-113.165c0,-3.47 2.817,-6.287 6.287,-6.287l176.292,0c3.47,0 6.287,2.817 6.287,6.287Z" style="fill:#66f3ff;fill-opacity:0;"/><path id="isolador-central" serif:id="isolador central" d="M556.099,102.383l0,115.12c0,2.931 -2.379,5.31 -5.31,5.31l-95.579,0c-2.931,0 -5.31,-2.379 -5.31,-5.31l0,-115.12c0,-2.931 2.379,-5.31 5.31,-5.31l95.579,0c2.931,0 5.31,2.379 5.31,5.31Z" style="fill:#66f3ff;fill-opacity:0;"/><path id="isolador-esquerdo" serif:id="isolador esquerdo" d="M202.305,229.455l0,115.12c0,2.931 -2.379,5.31 -5.31,5.31l-95.579,0c-2.931,0 -5.31,-2.379 -5.31,-5.31l0,-115.12c0,-2.931 2.379,-5.31 5.31,-5.31l95.579,0c2.931,0 5.31,2.379 5.31,5.31Z" style="fill:#66f3ff;fill-opacity:0;"/><path id="isolador-direito" serif:id="isolador direito" d="M910.792,236.58l0,115.12c0,2.931 -2.379,5.31 -5.31,5.31l-95.579,0c-2.931,0 -5.31,-2.379 -5.31,-5.31l0,-115.12c0,-2.931 2.379,-5.31 5.31,-5.31l95.579,0c2.931,0 5.31,2.379 5.31,5.31Z" style="fill:#66f3ff;fill-opacity:0;"/><g id="corpo-cima" serif:id="corpo cima"><g id="base"><path d="M409.31,765.076l193.3,0l21.87,197.395l-73.316,-197.395l-78.89,0l-86.756,197.395l23.791,-197.395Z" style="fill:none;stroke:#e6e6e6;stroke-width:21.67px;"/></g><path d="M508,108.5l111.913,65.774l0,131.548l-111.913,65.774l-111.913,-65.774l-0,-131.548l111.913,-65.774Z" style="fill:#66f3ff;fill-opacity:0;stroke:#e6e6e6;stroke-width:12.5px;"/><path d="M376,108.5l268,0l22,84.899l-91.717,249.496l-127.886,0l-104.265,-258.696l33.868,-75.7Z" style="fill:none;stroke:#e6e6e6;stroke-width:16.67px;"/><path d="M445.118,442.895l64.063,-59.399l67.659,59.399l-131.722,0Z" style="fill:none;stroke:#e6e6e6;stroke-width:16.67px;"/></g><g id="saia"><path id="saia1" serif:id="saia" d="M605.968,764.076l-160,-317.934l119.855,0l-149.189,316.548l189.333,1.386Z" style="fill:none;stroke:#e6e6e6;stroke-width:16.67px;"/><path id="Saia" d="M443.087,446.142l-38.366,317.934l201.248,0l-32.439,-317.934l-130.443,0Z" style="fill:none;stroke:#e6e6e6;stroke-width:16.67px;"/></g><path id="mísula-isolador-esquerda" serif:id="mísula isolador esquerda" d="M149.205,231.27l192.926,-39.774l-44.017,-54.367l-148.909,94.141Z" style="fill:none;stroke:#e6e6e6;stroke-width:16.67px;"/><path id="isolador-esquerdo1" serif:id="isolador esquerdo" d="M149.205,231.27l0,103.587" style="fill:none;stroke:#e6e6e6;stroke-width:12.5px;"/><path id="isolador-direito1" serif:id="isolador direito" d="M857.692,231.27l0,103.587" style="fill:none;stroke:#fff;stroke-width:12.5px;"/><path id="isolador-central1" serif:id="isolador central" d="M504.066,108.5l0,103.587" style="fill:none;stroke:#e6e6e6;stroke-width:12.5px;"/><path id="mísula-direita" serif:id="mísula direita" d="M811.47,38.163l-167.47,69.116l67.737,29.851l99.734,-98.967Z" style="fill:none;stroke:#e6e6e6;stroke-width:16.67px;"/><path id="Mísula-esquerda" serif:id="Mísula esquerda" d="M208.53,38.163l167.47,69.116l-67.737,29.851l-99.734,-98.967Z" style="fill:none;stroke:#e6e6e6;stroke-width:16.67px;"/><path id="mísula-isolador-direita" serif:id="mísula isolador direita" d="M858.667,231.27l-192.926,-39.774l44.017,-54.367l148.909,94.141Z" style="fill:none;stroke:#e6e6e6;stroke-width:16.67px;"/></svg>