<?xml version="1.0" encoding="UTF-8" standalone="no"?><!DOCTYPE svg PUBLIC "-//W3C//DTD SVG 1.1//EN" "http://www.w3.org/Graphics/SVG/1.1/DTD/svg11.dtd"><svg width="100%" height="100%" viewBox="0 0 240 240" version="1.1" xmlns="http://www.w3.org/2000/svg" xmlns:xlink="http://www.w3.org/1999/xlink" xml:space="preserve" xmlns:serif="http://www.serif.com/" style="fill-rule:evenodd;clip-rule:evenodd;stroke-linejoin:round;stroke-miterlimit:2;"><path d="M154.706,151.835l1.706,0.99l23.605,-13.713l-1.706,-0.993l-23.604,13.716Z" style="fill:#9c9c9c;fill-rule:nonzero;"/><path d="M181.504,138.526l-0.008,2.898l-90.287,-52.376l0.009,-2.899l90.286,52.377Z" style="fill:#858585;fill-rule:nonzero;"/><path d="M174.243,134.33l-31.494,-43.797l0,3.481l26.42,37.357l5.073,2.959Z" style="fill:#858585;fill-rule:nonzero;"/><path d="M119.813,77.168l-0.048,3.14l-22.1,9.58l-2.832,-1.643l24.98,-11.077Z" style="fill:#858585;fill-rule:nonzero;"/><path d="M154.969,100.883l1.706,0.992l23.604,-13.715l-1.706,-0.991l-23.604,13.714Z" style="fill:#9c9c9c;fill-rule:nonzero;"/><path d="M181.767,87.575l-0.008,2.896l-90.287,-52.376l0.009,-2.899l90.286,52.379Z" style="fill:#858585;fill-rule:nonzero;"/><path d="M174.507,83.377l-31.495,-43.796l0,3.481l26.421,37.356l5.073,2.959Z" style="fill:#858585;fill-rule:nonzero;"/><path d="M120.078,26.216l-0.05,3.141l-22.099,9.579l-2.832,-1.642l24.981,-11.078Z" style="fill:#858585;fill-rule:nonzero;"/><path d="M142.759,118.803l13.912,103.708l-2.448,1.421l-13.911,-103.706l2.447,-1.423Z" style="fill:#8f8f8f;fill-rule:nonzero;"/><path d="M140.312,120.226l13.911,103.706l-2.414,-1.393l-13.912,-103.705l2.415,1.392Z" style="fill:#9e9e9e;fill-rule:nonzero;"/><path d="M142.759,118.803l-2.447,1.423l-2.415,-1.392l2.448,-1.425l2.414,1.394Z" style="fill:#8f8f8f;fill-rule:nonzero;"/><path d="M96.817,118.803l-13.911,103.708l2.446,1.421l13.912,-103.706l-2.447,-1.423Z" style="fill:#9e9e9e;fill-rule:nonzero;"/><path d="M99.264,120.226l-13.912,103.706l2.414,-1.393l13.912,-103.705l-2.414,1.392Z" style="fill:#8f8f8f;fill-rule:nonzero;"/><path d="M96.817,118.803l2.447,1.423l2.414,-1.392l-2.447,-1.425l-2.414,1.394Z" style="fill:#8f8f8f;fill-rule:nonzero;"/><path d="M122.185,130.76l-0.293,107.817l-2.445,1.423l0.292,-107.817l2.446,-1.423Z" style="fill:#8f8f8f;fill-rule:nonzero;"/><path d="M119.739,132.183l-0.292,107.817l-2.414,-1.395l0.292,-107.817l2.414,1.395Z" style="fill:#9e9e9e;fill-rule:nonzero;"/><path d="M122.185,130.76l-2.446,1.423l-2.414,-1.395l2.447,-1.421l2.413,1.393Z" style="fill:#8f8f8f;fill-rule:nonzero;"/><path d="M143.049,39.529l-0.293,79.572l-2.447,1.422l0.293,-79.571l2.447,-1.423Z" style="fill:#8f8f8f;fill-rule:nonzero;"/><path d="M140.601,40.951l-0.293,79.571l-2.415,-1.394l0.294,-79.571l2.414,1.394Z" style="fill:#9e9e9e;fill-rule:nonzero;"/><path d="M143.049,39.529l-2.447,1.423l-2.414,-1.394l2.447,-1.423l2.414,1.394Z" style="fill:#8f8f8f;fill-rule:nonzero;"/><path d="M101.947,39.633l-0.293,79.571l-2.446,1.423l0.292,-79.572l2.447,-1.422Z" style="fill:#8f8f8f;fill-rule:nonzero;"/><path d="M99.5,41.054l-0.292,79.572l-2.416,-1.394l0.295,-79.572l2.414,1.394Z" style="fill:#9e9e9e;fill-rule:nonzero;"/><path d="M101.947,39.633l-2.447,1.422l-2.414,-1.394l2.446,-1.422l2.414,1.394Z" style="fill:#8f8f8f;fill-rule:nonzero;"/><path d="M122.475,51.485l-0.294,79.571l-2.445,1.422l0.293,-79.572l2.446,-1.421Z" style="fill:#8f8f8f;fill-rule:nonzero;"/><path d="M120.029,52.905l-0.293,79.572l-2.414,-1.394l0.293,-79.572l2.414,1.394Z" style="fill:#9e9e9e;fill-rule:nonzero;"/><path d="M122.475,51.485l-2.446,1.421l-2.414,-1.394l2.447,-1.422l2.413,1.395Z" style="fill:#8f8f8f;fill-rule:nonzero;"/><path d="M125.23,2.215l17.848,37.432l-2.447,1.423l-20.278,-41.07l4.878,2.215Z" style="fill:#8f8f8f;fill-rule:nonzero;"/><path d="M122.782,3.635l17.849,37.435l-2.414,-1.394l-17.849,-37.433l2.413,1.392Z" style="fill:#9e9e9e;fill-rule:nonzero;"/><path d="M120.352,0l-20.822,41.174l-2.414,-1.395l18.436,-37.433l4.8,-2.346Z" style="fill:#9e9e9e;fill-rule:nonzero;"/><path d="M120.413,2.317l-18.437,37.434l-2.446,1.423l18.436,-37.433l2.447,-1.424Z" style="fill:#8f8f8f;fill-rule:nonzero;"/><path d="M122.799,3.623l-0.295,47.98l-2.446,1.422l0.294,-53.025l2.447,3.623Z" style="fill:#8f8f8f;fill-rule:nonzero;"/><path d="M120.352,0l-0.294,53.025l-2.413,-1.395l0.292,-47.98l2.415,-3.65Z" style="fill:#9e9e9e;fill-rule:nonzero;"/><path d="M119.119,52.363l-0.007,2.899l-21.996,-12.703l0.009,-2.898l21.995,12.702Z" style="fill:#9e9e9e;fill-rule:nonzero;"/><path d="M119.116,77.935l-0.009,2.899l-21.992,-12.717l0.009,-2.899l21.992,12.717Z" style="fill:#9e9e9e;fill-rule:nonzero;"/><path d="M119,103.386l-0.008,2.899l-21.877,-12.611l0.009,-2.897l21.876,12.609Z" style="fill:#9e9e9e;fill-rule:nonzero;"/><path d="M118.997,128.996l-0.009,2.899l-21.873,-12.663l0.009,-2.898l21.873,12.662Z" style="fill:#9e9e9e;fill-rule:nonzero;"/><path d="M116.951,77.461l-18.154,-33.153l1.382,-0.756l18.155,33.152l-1.383,0.757Z" style="fill:#9e9e9e;fill-rule:nonzero;"/><path d="M99.843,67.196l-0.874,-1.315l18.237,-12.124l0.875,1.314l-18.238,12.125Z" style="fill:#9e9e9e;fill-rule:nonzero;"/><path d="M116.951,102.966l-18.154,-33.153l1.382,-0.758l18.155,33.152l-1.383,0.759Z" style="fill:#9e9e9e;fill-rule:nonzero;"/><path d="M99.843,92.699l-0.874,-1.317l18.237,-12.123l0.875,1.316l-18.238,12.124Z" style="fill:#9e9e9e;fill-rule:nonzero;"/><path d="M116.951,128.43l-18.154,-33.151l1.382,-0.759l18.155,33.153l-1.383,0.757Z" style="fill:#9e9e9e;fill-rule:nonzero;"/><path d="M99.407,118.434l-0.873,-1.314l18.673,-12.393l0.875,1.316l-18.675,12.392Z" style="fill:#9e9e9e;fill-rule:nonzero;"/><path d="M120.632,52.363l0.007,2.899l21.997,-12.703l-0.011,-2.898l-21.994,12.702Z" style="fill:#8f8f8f;fill-rule:nonzero;"/><path d="M120.635,77.935l0.009,2.899l21.993,-12.717l-0.011,-2.899l-21.991,12.717Z" style="fill:#8f8f8f;fill-rule:nonzero;"/><path d="M120.749,103.386l0.01,2.899l21.877,-12.611l-0.011,-2.897l-21.876,12.609Z" style="fill:#8f8f8f;fill-rule:nonzero;"/><path d="M120.753,128.996l0.009,2.899l21.874,-12.663l-0.011,-2.898l-21.872,12.662Z" style="fill:#8f8f8f;fill-rule:nonzero;"/><path d="M122.799,77.461l18.154,-33.153l-1.384,-0.756l-18.154,33.152l1.384,0.757Z" style="fill:#8f8f8f;fill-rule:nonzero;"/><path d="M139.907,67.196l0.873,-1.315l-18.237,-12.124l-0.872,1.314l18.236,12.125Z" style="fill:#8f8f8f;fill-rule:nonzero;"/><path d="M122.799,102.966l18.154,-33.153l-1.384,-0.758l-18.154,33.152l1.384,0.759Z" style="fill:#8f8f8f;fill-rule:nonzero;"/><path d="M139.907,92.699l0.873,-1.317l-18.237,-12.123l-0.872,1.316l18.236,12.124Z" style="fill:#8f8f8f;fill-rule:nonzero;"/><path d="M122.799,128.43l18.154,-33.151l-1.384,-0.759l-18.154,33.153l1.384,0.757Z" style="fill:#8f8f8f;fill-rule:nonzero;"/><path d="M140.344,118.434l0.874,-1.314l-18.675,-12.393l-0.872,1.316l18.673,12.392Z" style="fill:#8f8f8f;fill-rule:nonzero;"/><path d="M86.162,214.121l-0.335,-1.542l30.976,-6.706l-25.662,-40.025l25.829,-11.074l-18.693,-34.089l1.385,-0.759l19.529,35.615l-25.715,11.025l25.883,40.369l-33.196,7.186Z" style="fill:#9e9e9e;fill-rule:nonzero;"/><path d="M117.43,232.002l-29.214,-42.545l28.68,-9.177l-22.529,-38.053l23.338,-12.571l0.748,1.388l-21.89,11.793l22.701,38.342l-28.546,9.133l28.012,40.796l-1.301,0.894Z" style="fill:#9e9e9e;fill-rule:nonzero;"/><path d="M153.226,214.121l0.334,-1.542l-30.975,-6.706l25.662,-40.025l-25.831,-11.074l18.694,-34.089l-1.385,-0.759l-19.529,35.615l25.715,11.025l-25.883,40.369l33.197,7.186Z" style="fill:#8f8f8f;fill-rule:nonzero;"/><path d="M121.957,232.002l29.213,-42.545l-28.68,-9.177l22.529,-38.053l-23.338,-12.571l-0.748,1.388l21.891,11.793l-22.701,38.342l28.545,9.133l-28.013,40.796l1.302,0.894Z" style="fill:#8f8f8f;fill-rule:nonzero;"/><path d="M133.449,88.27l1.706,0.993l22.315,-12.983l-1.706,-0.992l-22.315,12.982Z" style="fill:#9c9c9c;fill-rule:nonzero;"/><path d="M158.813,101.019l-0.008,2.899l-90.287,-52.378l0.009,-2.899l90.286,52.378Z" style="fill:#a9a9a9;fill-rule:nonzero;"/><path d="M151.552,96.821l-31.495,-43.797l0,3.483l26.421,37.356l5.073,2.958Z" style="fill:#a9a9a9;fill-rule:nonzero;"/><path d="M97.124,39.66l-0.051,3.142l-22.101,9.578l-2.83,-1.642l24.982,-11.078Z" style="fill:#a9a9a9;fill-rule:nonzero;"/><path d="M133.186,139.222l1.706,0.992l22.316,-12.983l-1.705,-0.991l-22.317,12.982Z" style="fill:#9c9c9c;fill-rule:nonzero;"/><path d="M158.55,151.972l-0.01,2.897l-90.285,-52.377l0.008,-2.898l90.287,52.378Z" style="fill:#a9a9a9;fill-rule:nonzero;"/><path d="M151.288,147.774l-31.494,-43.798l0,3.481l26.421,37.358l5.072,2.959Z" style="fill:#a9a9a9;fill-rule:nonzero;"/><path d="M96.861,90.612l-0.051,3.141l-22.1,9.579l-2.833,-1.642l24.984,-11.078Z" style="fill:#a9a9a9;fill-rule:nonzero;"/><clipPath id="_clip1"><path d="M94.463,32.386l-0.014,4.942c-0.002,0.299 -0.197,0.595 -0.588,0.822c-0.788,0.457 -2.065,0.46 -2.859,0.002c-0.398,-0.231 -0.596,-0.531 -0.596,-0.832l0.014,-4.942c-0.001,0.3 0.197,0.602 0.596,0.832c0.793,0.459 2.071,0.456 2.859,-0.002c0.391,-0.227 0.586,-0.524 0.588,-0.822Z"/></clipPath><g clip-path="url(#_clip1)"><path d="M94.463,32.386l-0.014,4.942c-0.002,0.299 -0.197,0.595 -0.588,0.822c-0.788,0.457 -2.065,0.46 -2.859,0.003c-0.398,-0.232 -0.596,-0.532 -0.596,-0.833l0.014,-4.942c-0.001,0.3 0.197,0.602 0.596,0.832c0.793,0.459 2.071,0.456 2.859,-0.002c0.391,-0.227 0.586,-0.524 0.588,-0.822Z" style="fill:#fff;fill-rule:nonzero;"/></g><path d="M93.866,31.554c0.794,0.458 0.795,1.198 0.01,1.655c-0.788,0.458 -2.066,0.461 -2.859,0.002c-0.794,-0.459 -0.795,-1.199 -0.006,-1.656c0.785,-0.455 2.062,-0.458 2.855,0Z" style="fill:#eaeaea;fill-rule:nonzero;"/><clipPath id="_clip2"><path d="M93.862,83.37l-0.014,4.941c-0.002,0.299 -0.197,0.595 -0.588,0.822c-0.788,0.457 -2.064,0.46 -2.859,0.003c-0.398,-0.232 -0.596,-0.532 -0.596,-0.833l0.014,-4.942c-0.001,0.3 0.197,0.602 0.596,0.832c0.793,0.459 2.071,0.456 2.859,-0.002c0.391,-0.227 0.586,-0.524 0.588,-0.821Z"/></clipPath><g clip-path="url(#_clip2)"><path d="M93.862,83.369l-0.014,4.942c-0.002,0.299 -0.197,0.595 -0.588,0.822c-0.788,0.457 -2.065,0.46 -2.859,0.003c-0.398,-0.232 -0.596,-0.532 -0.596,-0.833l0.014,-4.942c-0.001,0.3 0.197,0.602 0.596,0.832c0.793,0.459 2.071,0.456 2.859,-0.002c0.391,-0.227 0.586,-0.524 0.588,-0.822Z" style="fill:#fff;fill-rule:nonzero;"/></g><path d="M93.265,82.537c0.794,0.458 0.795,1.198 0.01,1.655c-0.788,0.458 -2.066,0.461 -2.859,0.002c-0.794,-0.459 -0.795,-1.199 -0.006,-1.656c0.785,-0.455 2.062,-0.458 2.855,0Z" style="fill:#eaeaea;fill-rule:nonzero;"/><clipPath id="_clip3"><path d="M160.395,149.221l-0.014,4.943c-0.002,0.298 -0.197,0.595 -0.588,0.821c-0.788,0.458 -2.065,0.46 -2.859,0.003c-0.398,-0.231 -0.596,-0.531 -0.596,-0.832l0.014,-4.942c-0.001,0.3 0.197,0.601 0.596,0.832c0.793,0.457 2.071,0.456 2.859,-0.003c0.391,-0.226 0.586,-0.523 0.588,-0.822Z"/></clipPath><g clip-path="url(#_clip3)"><path d="M160.395,149.222l-0.014,4.942c-0.002,0.298 -0.197,0.595 -0.588,0.821c-0.788,0.458 -2.065,0.46 -2.859,0.003c-0.398,-0.231 -0.596,-0.531 -0.596,-0.832l0.014,-4.942c-0.001,0.3 0.197,0.601 0.596,0.832c0.793,0.458 2.071,0.455 2.859,-0.003c0.391,-0.226 0.586,-0.523 0.588,-0.821Z" style="fill:#fff;fill-rule:nonzero;"/></g><path d="M159.798,148.389c0.794,0.459 0.795,1.199 0.01,1.655c-0.788,0.458 -2.066,0.461 -2.859,0.003c-0.794,-0.459 -0.795,-1.199 -0.006,-1.657c0.785,-0.455 2.062,-0.458 2.855,0Z" style="fill:#eaeaea;fill-rule:nonzero;"/><clipPath id="_clip4"><path d="M182.6,135.434l-0.014,4.941c-0.002,0.299 -0.197,0.595 -0.588,0.822c-0.788,0.457 -2.064,0.46 -2.859,0.003c-0.398,-0.232 -0.596,-0.532 -0.596,-0.833l0.014,-4.942c-0.001,0.3 0.197,0.602 0.596,0.832c0.793,0.458 2.071,0.457 2.859,-0.002c0.391,-0.227 0.586,-0.524 0.588,-0.821Z"/></clipPath><g clip-path="url(#_clip4)"><path d="M182.6,135.433l-0.014,4.942c-0.002,0.299 -0.197,0.595 -0.588,0.822c-0.788,0.457 -2.065,0.46 -2.859,0.003c-0.398,-0.232 -0.596,-0.532 -0.596,-0.833l0.014,-4.942c-0.001,0.3 0.197,0.602 0.596,0.832c0.793,0.459 2.071,0.456 2.859,-0.002c0.391,-0.227 0.586,-0.524 0.588,-0.822Z" style="fill:#fff;fill-rule:nonzero;"/></g><path d="M182.003,134.601c0.794,0.458 0.795,1.198 0.01,1.655c-0.788,0.458 -2.066,0.461 -2.859,0.002c-0.794,-0.459 -0.795,-1.199 -0.006,-1.656c0.785,-0.455 2.062,-0.458 2.855,0Z" style="fill:#eaeaea;fill-rule:nonzero;"/><clipPath id="_clip5"><path d="M160.395,98.359l-0.014,4.942c-0.002,0.298 -0.197,0.595 -0.588,0.821c-0.788,0.458 -2.065,0.46 -2.859,0.003c-0.398,-0.231 -0.596,-0.531 -0.596,-0.832l0.014,-4.942c-0.001,0.3 0.197,0.601 0.596,0.832c0.793,0.457 2.071,0.455 2.859,-0.003c0.391,-0.226 0.586,-0.523 0.588,-0.821Z"/></clipPath><g clip-path="url(#_clip5)"><path d="M160.395,98.359l-0.014,4.942c-0.002,0.298 -0.197,0.595 -0.588,0.821c-0.788,0.458 -2.065,0.46 -2.859,0.003c-0.398,-0.231 -0.596,-0.531 -0.596,-0.832l0.014,-4.942c-0.001,0.3 0.197,0.601 0.596,0.832c0.793,0.457 2.071,0.455 2.859,-0.003c0.391,-0.226 0.586,-0.523 0.588,-0.821Z" style="fill:#fff;fill-rule:nonzero;"/></g><path d="M159.798,97.526c0.794,0.459 0.795,1.199 0.01,1.655c-0.788,0.458 -2.066,0.46 -2.859,0.003c-0.794,-0.459 -0.795,-1.199 -0.006,-1.657c0.785,-0.455 2.062,-0.458 2.855,0Z" style="fill:#eaeaea;fill-rule:nonzero;"/><clipPath id="_clip6"><path d="M182.6,84.572l-0.014,4.941c-0.002,0.299 -0.197,0.595 -0.588,0.822c-0.788,0.457 -2.064,0.46 -2.859,0.003c-0.398,-0.232 -0.596,-0.532 -0.596,-0.833l0.014,-4.942c-0.001,0.3 0.197,0.602 0.596,0.832c0.793,0.459 2.071,0.456 2.859,-0.002c0.391,-0.227 0.586,-0.524 0.588,-0.821Z"/></clipPath><g clip-path="url(#_clip6)"><path d="M182.6,84.571l-0.014,4.942c-0.002,0.299 -0.197,0.595 -0.588,0.822c-0.788,0.457 -2.065,0.46 -2.859,0.003c-0.398,-0.232 -0.596,-0.532 -0.596,-0.833l0.014,-4.942c-0.001,0.3 0.197,0.602 0.596,0.832c0.793,0.459 2.071,0.456 2.859,-0.002c0.391,-0.227 0.586,-0.524 0.588,-0.822Z" style="fill:#fff;fill-rule:nonzero;"/></g><path d="M182.003,83.739c0.794,0.458 0.795,1.198 0.01,1.655c-0.788,0.458 -2.066,0.461 -2.859,0.002c-0.794,-0.459 -0.795,-1.199 -0.006,-1.656c0.785,-0.455 2.062,-0.458 2.855,0Z" style="fill:#eaeaea;fill-rule:nonzero;"/><clipPath id="_clip7"><path d="M72.258,46.175l-0.014,4.942c-0.002,0.298 -0.197,0.595 -0.588,0.821c-0.788,0.458 -2.065,0.46 -2.859,0.003c-0.398,-0.231 -0.596,-0.531 -0.596,-0.832l0.014,-4.942c-0.001,0.3 0.197,0.601 0.596,0.832c0.793,0.458 2.071,0.455 2.859,-0.003c0.391,-0.226 0.586,-0.523 0.588,-0.821Z"/></clipPath><g clip-path="url(#_clip7)"><path d="M72.258,46.175l-0.014,4.942c-0.002,0.298 -0.197,0.595 -0.588,0.821c-0.788,0.458 -2.065,0.46 -2.859,0.003c-0.398,-0.231 -0.596,-0.531 -0.596,-0.832l0.014,-4.942c-0.001,0.3 0.197,0.601 0.596,0.832c0.793,0.457 2.071,0.455 2.859,-0.003c0.391,-0.226 0.586,-0.523 0.588,-0.821Z" style="fill:#fff;fill-rule:nonzero;"/></g><path d="M71.661,45.342c0.794,0.459 0.795,1.199 0.01,1.655c-0.788,0.458 -2.066,0.46 -2.859,0.003c-0.794,-0.459 -0.795,-1.199 -0.006,-1.657c0.785,-0.455 2.062,-0.458 2.855,0Z" style="fill:#eaeaea;fill-rule:nonzero;"/><clipPath id="_clip8"><path d="M71.657,97.157l-0.014,4.942c-0.002,0.298 -0.197,0.595 -0.588,0.821c-0.788,0.458 -2.065,0.46 -2.859,0.003c-0.398,-0.231 -0.596,-0.531 -0.596,-0.832l0.014,-4.942c-0.001,0.3 0.197,0.601 0.596,0.832c0.793,0.457 2.071,0.455 2.859,-0.003c0.391,-0.226 0.586,-0.523 0.588,-0.821Z"/></clipPath><g clip-path="url(#_clip8)"><path d="M71.657,97.157l-0.014,4.942c-0.002,0.298 -0.197,0.595 -0.588,0.821c-0.788,0.458 -2.065,0.46 -2.859,0.003c-0.398,-0.231 -0.596,-0.531 -0.596,-0.832l0.014,-4.942c-0.001,0.3 0.197,0.601 0.596,0.832c0.793,0.457 2.071,0.455 2.859,-0.003c0.391,-0.226 0.586,-0.523 0.588,-0.821Z" style="fill:#fff;fill-rule:nonzero;"/></g><path d="M71.06,96.324c0.794,0.459 0.795,1.199 0.01,1.655c-0.788,0.458 -2.066,0.46 -2.859,0.003c-0.794,-0.459 -0.795,-1.199 -0.006,-1.657c0.785,-0.455 2.062,-0.458 2.855,0Z" style="fill:#eaeaea;fill-rule:nonzero;"/></svg>