<?xml version="1.0" encoding="UTF-8" standalone="no"?><!DOCTYPE svg PUBLIC "-//W3C//DTD SVG 1.1//EN" "http://www.w3.org/Graphics/SVG/1.1/DTD/svg11.dtd"><svg width="100%" height="100%" viewBox="0 0 1000 1000" version="1.1" xmlns="http://www.w3.org/2000/svg" xmlns:xlink="http://www.w3.org/1999/xlink" xml:space="preserve" xmlns:serif="http://www.serif.com/" style="fill-rule:evenodd;clip-rule:evenodd;stroke-linejoin:round;stroke-miterlimit:2;"><path d="M644.609,632.646l7.106,4.124l98.353,-57.139l-7.11,-4.136l-98.349,57.151Z" style="fill:#fff;fill-rule:nonzero;"/><path d="M756.266,577.191l-0.032,12.076l-376.195,-218.234l0.036,-12.08l376.191,218.238Z" style="fill:#fff;fill-rule:nonzero;"/><path d="M726.013,559.708l-131.223,-182.486l0,14.505l110.085,155.653l21.138,12.329Z" style="fill:#fff;fill-rule:nonzero;"/><path d="M499.221,321.534l-0.2,13.082l-92.085,39.916l-11.8,-6.846l104.085,-46.153Z" style="fill:#fff;fill-rule:nonzero;"/><path d="M645.704,420.344l7.11,4.132l98.349,-57.147l-7.11,-4.128l-98.349,57.143Z" style="fill:#fff;fill-rule:nonzero;"/><path d="M757.364,364.897l-0.032,12.068l-376.195,-218.234l0.036,-12.08l376.191,218.246Z" style="fill:#fff;fill-rule:nonzero;"/><path d="M727.111,347.406l-131.228,-182.482l0,14.505l110.089,155.648l21.138,12.329Z" style="fill:#fff;fill-rule:nonzero;"/><path d="M500.324,109.231l-0.208,13.086l-92.081,39.912l-11.8,-6.842l104.089,-46.157Z" style="fill:#fff;fill-rule:nonzero;"/><path d="M594.829,495.014l57.968,432.116l-10.2,5.92l-57.964,-432.108l10.196,-5.928Z" style="fill:#fff;fill-rule:nonzero;"/><path d="M584.633,500.942l57.964,432.108l-10.06,-5.804l-57.968,-432.104l10.064,5.8Z" style="fill:#fff;fill-rule:nonzero;"/><path d="M594.829,495.014l-10.196,5.928l-10.064,-5.8l10.201,-5.936l10.06,5.808Z" style="fill:#fff;fill-rule:nonzero;"/><path d="M403.405,495.014l-57.965,432.116l10.193,5.92l57.968,-432.108l-10.196,-5.928Z" style="fill:#fff;fill-rule:nonzero;"/><path d="M413.601,500.942l-57.968,432.108l10.06,-5.804l57.968,-432.104l-10.06,5.8Z" style="fill:#fff;fill-rule:nonzero;"/><path d="M403.405,495.014l10.196,5.928l10.06,-5.8l-10.196,-5.936l-10.06,5.808Z" style="fill:#fff;fill-rule:nonzero;"/><path d="M509.105,544.834l-1.222,449.238l-10.188,5.928l1.219,-449.238l10.192,-5.928Z" style="fill:#fff;fill-rule:nonzero;"/><path d="M498.913,550.762l-1.219,449.238l-10.06,-5.812l1.219,-449.238l10.06,5.812Z" style="fill:#fff;fill-rule:nonzero;"/><path d="M509.105,544.834l-10.192,5.928l-10.06,-5.812l10.196,-5.92l10.056,5.804Z" style="fill:#fff;fill-rule:nonzero;"/><path d="M596.036,164.703l-1.222,331.55l-10.196,5.924l1.222,-331.546l10.196,-5.928Z" style="fill:#fff;fill-rule:nonzero;"/><path d="M585.839,170.631l-1.222,331.546l-10.064,-5.808l1.226,-331.546l10.06,5.808Z" style="fill:#fff;fill-rule:nonzero;"/><path d="M596.036,164.703l-10.196,5.928l-10.06,-5.808l10.196,-5.928l10.06,5.808Z" style="fill:#fff;fill-rule:nonzero;"/><path d="M424.78,165.136l-1.222,331.546l-10.192,5.928l1.219,-331.55l10.196,-5.924Z" style="fill:#fff;fill-rule:nonzero;"/><path d="M414.584,171.06l-1.219,331.55l-10.068,-5.808l1.23,-331.55l10.056,5.808Z" style="fill:#fff;fill-rule:nonzero;"/><path d="M424.78,165.136l-10.196,5.924l-10.056,-5.808l10.193,-5.924l10.06,5.808Z" style="fill:#fff;fill-rule:nonzero;"/><path d="M510.312,214.519l-1.227,331.546l-10.188,5.924l1.222,-331.55l10.193,-5.92Z" style="fill:#fff;fill-rule:nonzero;"/><path d="M500.119,220.439l-1.222,331.55l-10.06,-5.808l1.222,-331.55l10.06,5.808Z" style="fill:#fff;fill-rule:nonzero;"/><path d="M510.312,214.519l-10.193,5.92l-10.06,-5.808l10.196,-5.924l10.056,5.812Z" style="fill:#fff;fill-rule:nonzero;"/><path d="M521.791,9.23l74.365,155.965l-10.196,5.928l-84.494,-171.124l20.325,9.23Z" style="fill:#fff;fill-rule:nonzero;"/><path d="M511.59,15.146l74.37,155.977l-10.056,-5.808l-74.369,-155.969l10.056,5.799Z" style="fill:#fff;fill-rule:nonzero;"/><path d="M501.466,0l-86.758,171.556l-10.06,-5.811l76.818,-155.969l20,-9.776Z" style="fill:#fff;fill-rule:nonzero;"/><path d="M501.722,9.655l-76.822,155.973l-10.193,5.928l76.818,-155.969l10.196,-5.932Z" style="fill:#fff;fill-rule:nonzero;"/><path d="M511.662,15.094l-1.23,199.918l-10.193,5.924l1.227,-220.936l10.196,15.094Z" style="fill:#fff;fill-rule:nonzero;"/><path d="M501.466,0l-1.227,220.936l-10.056,-5.811l1.218,-199.918l10.064,-15.207Z" style="fill:#fff;fill-rule:nonzero;"/><path d="M496.328,218.178l-0.028,12.08l-91.652,-52.93l0.036,-12.076l91.644,52.926Z" style="fill:#fff;fill-rule:nonzero;"/><path d="M496.316,324.728l-0.036,12.08l-91.632,-52.987l0.036,-12.08l91.632,52.986Z" style="fill:#fff;fill-rule:nonzero;"/><path d="M495.835,430.773l-0.032,12.08l-91.155,-52.546l0.036,-12.072l91.151,52.537Z" style="fill:#fff;fill-rule:nonzero;"/><path d="M495.823,537.483l-0.036,12.08l-91.139,-52.762l0.036,-12.076l91.139,52.758Z" style="fill:#fff;fill-rule:nonzero;"/><path d="M487.298,322.756l-75.64,-138.137l5.76,-3.15l75.644,138.133l-5.764,3.154Z" style="fill:#fff;fill-rule:nonzero;"/><path d="M416.014,279.982l-3.643,-5.479l75.989,-50.517l3.647,5.475l-75.992,50.521Z" style="fill:#fff;fill-rule:nonzero;"/><path d="M487.298,429.026l-75.64,-138.137l5.76,-3.158l75.644,138.133l-5.764,3.162Z" style="fill:#fff;fill-rule:nonzero;"/><path d="M416.014,386.247l-3.643,-5.487l75.989,-50.514l3.647,5.483l-75.992,50.517Z" style="fill:#fff;fill-rule:nonzero;"/><path d="M487.298,535.127l-75.64,-138.129l5.76,-3.162l75.644,138.137l-5.764,3.154Z" style="fill:#fff;fill-rule:nonzero;"/><path d="M414.195,493.475l-3.639,-5.475l77.804,-51.64l3.647,5.483l-77.812,51.632Z" style="fill:#fff;fill-rule:nonzero;"/><path d="M502.632,218.178l0.028,12.08l91.656,-52.93l-0.044,-12.076l-91.64,52.926Z" style="fill:#fff;fill-rule:nonzero;"/><path d="M502.644,324.728l0.036,12.08l91.636,-52.987l-0.044,-12.08l-91.628,52.986Z" style="fill:#fff;fill-rule:nonzero;"/><path d="M503.121,430.773l0.04,12.08l91.155,-52.546l-0.044,-12.072l-91.151,52.537Z" style="fill:#fff;fill-rule:nonzero;"/><path d="M503.137,537.483l0.036,12.08l91.143,-52.762l-0.044,-12.076l-91.135,52.758Z" style="fill:#fff;fill-rule:nonzero;"/><path d="M511.662,322.756l75.64,-138.137l-5.767,-3.15l-75.64,138.133l5.767,3.154Z" style="fill:#fff;fill-rule:nonzero;"/><path d="M582.946,279.982l3.639,-5.479l-75.989,-50.517l-3.635,5.475l75.985,50.521Z" style="fill:#fff;fill-rule:nonzero;"/><path d="M511.662,429.026l75.64,-138.137l-5.767,-3.158l-75.64,138.133l5.767,3.162Z" style="fill:#fff;fill-rule:nonzero;"/><path d="M582.946,386.247l3.639,-5.487l-75.989,-50.514l-3.635,5.483l75.985,50.517Z" style="fill:#fff;fill-rule:nonzero;"/><path d="M511.662,535.127l75.64,-138.129l-5.767,-3.162l-75.64,138.137l5.767,3.154Z" style="fill:#fff;fill-rule:nonzero;"/><path d="M584.765,493.475l3.643,-5.475l-77.812,-51.64l-3.635,5.483l77.804,51.632Z" style="fill:#fff;fill-rule:nonzero;"/><path d="M359.008,892.172l-1.395,-6.425l129.067,-27.94l-106.927,-166.771l107.62,-46.14l-77.888,-142.037l5.772,-3.162l81.371,148.394l-107.147,45.936l107.844,168.206l-138.318,29.94Z" style="fill:#fff;fill-rule:nonzero;"/><path d="M489.293,966.673l-121.724,-177.272l119.5,-38.237l-93.872,-158.554l97.243,-52.377l3.118,5.784l-91.207,49.139l94.586,159.757l-118.943,38.052l116.718,169.985l-5.419,3.724Z" style="fill:#fff;fill-rule:nonzero;"/><path d="M638.441,892.172l1.391,-6.425l-129.063,-27.94l106.927,-166.771l-107.628,-46.14l77.892,-142.037l-5.772,-3.162l-81.371,148.394l107.147,45.936l-107.845,168.206l138.322,29.94Z" style="fill:#fff;fill-rule:nonzero;"/><path d="M508.155,966.673l121.72,-177.272l-119.5,-38.237l93.873,-158.554l-97.243,-52.377l-3.118,5.784l91.211,49.139l-94.586,159.757l118.939,38.052l-116.722,169.985l5.427,3.724Z" style="fill:#fff;fill-rule:nonzero;"/><path d="M556.04,367.791l7.11,4.136l92.979,-54.096l-7.11,-4.132l-92.979,54.093Z" style="fill:#fff;fill-rule:nonzero;"/><path d="M661.72,420.913l-0.032,12.08l-376.195,-218.242l0.036,-12.08l376.191,218.242Z" style="fill:#fff;fill-rule:nonzero;"/><path d="M631.467,403.422l-131.228,-182.487l0,14.513l110.089,155.648l21.139,12.325Z" style="fill:#fff;fill-rule:nonzero;"/><path d="M404.684,165.252l-0.212,13.09l-92.089,39.908l-11.792,-6.842l104.093,-46.157Z" style="fill:#fff;fill-rule:nonzero;"/><path d="M554.941,580.093l7.11,4.132l92.983,-54.097l-7.106,-4.128l-92.987,54.093Z" style="fill:#fff;fill-rule:nonzero;"/><path d="M660.626,633.216l-0.04,12.072l-376.187,-218.238l0.032,-12.076l376.195,218.242Z" style="fill:#fff;fill-rule:nonzero;"/><path d="M630.365,615.724l-131.223,-182.49l0,14.505l110.089,155.657l21.134,12.329Z" style="fill:#fff;fill-rule:nonzero;"/><path d="M403.585,377.55l-0.213,13.086l-92.085,39.912l-11.804,-6.842l104.101,-46.157Z" style="fill:#fff;fill-rule:nonzero;"/><clipPath id="_clip1"><path d="M393.597,134.943l-0.06,20.593c-0.008,1.246 -0.822,2.481 -2.449,3.427c-3.283,1.904 -8.605,1.916 -11.912,0.008c-1.659,-0.962 -2.485,-2.212 -2.485,-3.467l0.06,-20.593c-0.004,1.25 0.822,2.509 2.485,3.467c3.303,1.912 8.629,1.9 11.912,-0.008c1.627,-0.946 2.441,-2.184 2.449,-3.427Z"/></clipPath><g clip-path="url(#_clip1)"><path d="M393.597,134.943l-0.06,20.593c-0.008,1.246 -0.822,2.481 -2.449,3.427c-3.283,1.904 -8.605,1.916 -11.912,0.012c-1.659,-0.966 -2.485,-2.216 -2.485,-3.471l0.06,-20.593c-0.004,1.25 0.822,2.509 2.485,3.467c3.303,1.912 8.629,1.9 11.912,-0.008c1.627,-0.946 2.441,-2.184 2.449,-3.427Z" style="fill:#fff;fill-rule:nonzero;"/></g><path d="M391.108,131.476c3.307,1.908 3.311,4.99 0.04,6.894c-3.282,1.908 -8.609,1.92 -11.912,0.008c-3.307,-1.912 -3.311,-4.994 -0.024,-6.902c3.27,-1.896 8.593,-1.908 11.896,0Z" style="fill:#fff;fill-rule:nonzero;"/><clipPath id="_clip2"><path d="M391.092,347.374l-0.06,20.589c-0.008,1.246 -0.822,2.481 -2.449,3.427c-3.283,1.904 -8.601,1.916 -11.912,0.012c-1.659,-0.966 -2.485,-2.216 -2.485,-3.471l0.06,-20.593c-0.004,1.25 0.822,2.509 2.485,3.467c3.303,1.912 8.629,1.9 11.912,-0.008c1.627,-0.946 2.441,-2.184 2.449,-3.423Z"/></clipPath><g clip-path="url(#_clip2)"><path d="M391.092,347.37l-0.06,20.593c-0.008,1.246 -0.822,2.481 -2.449,3.427c-3.283,1.904 -8.605,1.916 -11.912,0.012c-1.659,-0.966 -2.485,-2.216 -2.485,-3.471l0.06,-20.593c-0.004,1.25 0.822,2.509 2.485,3.467c3.303,1.912 8.629,1.9 11.912,-0.008c1.627,-0.946 2.441,-2.184 2.449,-3.427Z" style="fill:#fff;fill-rule:nonzero;"/></g><path d="M388.603,343.902c3.307,1.908 3.311,4.99 0.04,6.894c-3.282,1.908 -8.609,1.92 -11.912,0.008c-3.307,-1.912 -3.311,-4.994 -0.024,-6.902c3.27,-1.896 8.593,-1.908 11.896,0Z" style="fill:#fff;fill-rule:nonzero;"/><clipPath id="_clip3"><path d="M668.313,621.752l-0.06,20.598c-0.008,1.242 -0.822,2.481 -2.449,3.423c-3.282,1.908 -8.605,1.916 -11.912,0.012c-1.659,-0.962 -2.485,-2.212 -2.485,-3.467l0.06,-20.593c-0.004,1.251 0.821,2.505 2.485,3.467c3.303,1.904 8.629,1.9 11.912,-0.012c1.627,-0.942 2.441,-2.18 2.449,-3.427Z"/></clipPath><g clip-path="url(#_clip3)"><path d="M668.313,621.757l-0.06,20.593c-0.008,1.242 -0.822,2.481 -2.449,3.423c-3.282,1.908 -8.605,1.916 -11.912,0.012c-1.659,-0.962 -2.485,-2.212 -2.485,-3.467l0.06,-20.593c-0.004,1.251 0.821,2.505 2.485,3.467c3.303,1.908 8.629,1.896 11.912,-0.012c1.627,-0.942 2.441,-2.18 2.449,-3.423Z" style="fill:#fff;fill-rule:nonzero;"/></g><path d="M665.824,618.285c3.307,1.912 3.311,4.994 0.04,6.894c-3.282,1.908 -8.609,1.92 -11.912,0.012c-3.307,-1.912 -3.311,-4.994 -0.024,-6.906c3.271,-1.896 8.593,-1.908 11.896,0Z" style="fill:#fff;fill-rule:nonzero;"/><clipPath id="_clip4"><path d="M760.835,564.309l-0.06,20.589c-0.008,1.246 -0.822,2.481 -2.449,3.427c-3.283,1.904 -8.601,1.916 -11.912,0.012c-1.659,-0.966 -2.485,-2.216 -2.485,-3.471l0.06,-20.593c-0.004,1.25 0.822,2.509 2.485,3.467c3.303,1.908 8.629,1.904 11.912,-0.008c1.627,-0.946 2.441,-2.184 2.449,-3.423Z"/></clipPath><g clip-path="url(#_clip4)"><path d="M760.835,564.305l-0.06,20.593c-0.008,1.246 -0.822,2.481 -2.449,3.427c-3.283,1.904 -8.605,1.916 -11.912,0.012c-1.659,-0.966 -2.485,-2.216 -2.485,-3.471l0.06,-20.593c-0.004,1.25 0.822,2.509 2.485,3.467c3.303,1.912 8.629,1.9 11.912,-0.008c1.627,-0.946 2.441,-2.184 2.449,-3.427Z" style="fill:#fff;fill-rule:nonzero;"/></g><path d="M758.346,560.838c3.307,1.908 3.311,4.99 0.04,6.894c-3.282,1.908 -8.609,1.92 -11.912,0.008c-3.307,-1.912 -3.311,-4.994 -0.024,-6.902c3.27,-1.896 8.593,-1.908 11.896,0Z" style="fill:#fff;fill-rule:nonzero;"/><clipPath id="_clip5"><path d="M668.313,409.831l-0.06,20.593c-0.008,1.242 -0.822,2.481 -2.449,3.423c-3.282,1.908 -8.605,1.916 -11.912,0.012c-1.659,-0.962 -2.485,-2.212 -2.485,-3.467l0.06,-20.593c-0.004,1.251 0.821,2.505 2.485,3.467c3.303,1.904 8.629,1.896 11.912,-0.012c1.627,-0.942 2.441,-2.18 2.449,-3.423Z"/></clipPath><g clip-path="url(#_clip5)"><path d="M668.313,409.831l-0.06,20.593c-0.008,1.242 -0.822,2.481 -2.449,3.423c-3.282,1.908 -8.605,1.916 -11.912,0.012c-1.659,-0.962 -2.485,-2.212 -2.485,-3.467l0.06,-20.593c-0.004,1.251 0.821,2.505 2.485,3.467c3.303,1.904 8.629,1.896 11.912,-0.012c1.627,-0.942 2.441,-2.18 2.449,-3.423Z" style="fill:#fff;fill-rule:nonzero;"/></g><path d="M665.824,406.36c3.307,1.912 3.311,4.994 0.04,6.894c-3.282,1.908 -8.609,1.916 -11.912,0.012c-3.307,-1.912 -3.311,-4.994 -0.024,-6.906c3.271,-1.896 8.593,-1.908 11.896,0Z" style="fill:#fff;fill-rule:nonzero;"/><clipPath id="_clip6"><path d="M760.835,352.384l-0.06,20.589c-0.008,1.246 -0.822,2.481 -2.449,3.427c-3.283,1.904 -8.601,1.916 -11.912,0.012c-1.659,-0.966 -2.485,-2.216 -2.485,-3.471l0.06,-20.593c-0.004,1.25 0.822,2.509 2.485,3.467c3.303,1.912 8.629,1.9 11.912,-0.008c1.627,-0.946 2.441,-2.184 2.449,-3.423Z"/></clipPath><g clip-path="url(#_clip6)"><path d="M760.835,352.38l-0.06,20.593c-0.008,1.246 -0.822,2.481 -2.449,3.427c-3.283,1.904 -8.605,1.916 -11.912,0.012c-1.659,-0.966 -2.485,-2.216 -2.485,-3.471l0.06,-20.593c-0.004,1.25 0.822,2.509 2.485,3.467c3.303,1.912 8.629,1.9 11.912,-0.008c1.627,-0.946 2.441,-2.184 2.449,-3.427Z" style="fill:#fff;fill-rule:nonzero;"/></g><path d="M758.346,348.913c3.307,1.908 3.311,4.99 0.04,6.894c-3.282,1.908 -8.609,1.92 -11.912,0.008c-3.307,-1.912 -3.311,-4.994 -0.024,-6.902c3.27,-1.896 8.593,-1.908 11.896,0Z" style="fill:#fff;fill-rule:nonzero;"/><clipPath id="_clip7"><path d="M301.076,192.394l-0.06,20.593c-0.008,1.242 -0.822,2.481 -2.449,3.423c-3.282,1.908 -8.605,1.916 -11.912,0.012c-1.659,-0.962 -2.485,-2.212 -2.485,-3.467l0.06,-20.593c-0.004,1.251 0.821,2.505 2.485,3.467c3.303,1.908 8.629,1.896 11.912,-0.012c1.627,-0.942 2.441,-2.18 2.449,-3.423Z"/></clipPath><g clip-path="url(#_clip7)"><path d="M301.076,192.394l-0.06,20.593c-0.008,1.242 -0.822,2.481 -2.449,3.423c-3.282,1.908 -8.605,1.916 -11.912,0.012c-1.659,-0.962 -2.485,-2.212 -2.485,-3.467l0.06,-20.593c-0.004,1.251 0.821,2.505 2.485,3.467c3.303,1.904 8.629,1.896 11.912,-0.012c1.627,-0.942 2.441,-2.18 2.449,-3.423Z" style="fill:#fff;fill-rule:nonzero;"/></g><path d="M298.587,188.923c3.307,1.912 3.311,4.994 0.04,6.894c-3.282,1.908 -8.609,1.916 -11.912,0.012c-3.307,-1.912 -3.311,-4.994 -0.024,-6.906c3.271,-1.896 8.593,-1.908 11.896,0Z" style="fill:#fff;fill-rule:nonzero;"/><clipPath id="_clip8"><path d="M298.571,404.821l-0.06,20.593c-0.008,1.242 -0.822,2.481 -2.449,3.423c-3.282,1.908 -8.605,1.916 -11.912,0.012c-1.659,-0.962 -2.485,-2.212 -2.485,-3.467l0.06,-20.593c-0.004,1.251 0.821,2.505 2.485,3.467c3.303,1.904 8.629,1.896 11.912,-0.012c1.627,-0.942 2.441,-2.18 2.449,-3.423Z"/></clipPath><g clip-path="url(#_clip8)"><path d="M298.571,404.821l-0.06,20.593c-0.008,1.242 -0.822,2.481 -2.449,3.423c-3.282,1.908 -8.605,1.916 -11.912,0.012c-1.659,-0.962 -2.485,-2.212 -2.485,-3.467l0.06,-20.593c-0.004,1.251 0.821,2.505 2.485,3.467c3.303,1.904 8.629,1.896 11.912,-0.012c1.627,-0.942 2.441,-2.18 2.449,-3.423Z" style="fill:#fff;fill-rule:nonzero;"/></g><path d="M296.082,401.35c3.307,1.912 3.311,4.994 0.04,6.894c-3.282,1.908 -8.609,1.916 -11.912,0.012c-3.307,-1.912 -3.311,-4.994 -0.024,-6.906c3.271,-1.896 8.593,-1.908 11.896,0Z" style="fill:#fff;fill-rule:nonzero;"/></svg>