<?xml version="1.0" encoding="UTF-8" standalone="no"?><!DOCTYPE svg PUBLIC "-//W3C//DTD SVG 1.1//EN" "http://www.w3.org/Graphics/SVG/1.1/DTD/svg11.dtd"><svg width="100%" height="100%" viewBox="0 0 4167 4167" version="1.1" xmlns="http://www.w3.org/2000/svg" xmlns:xlink="http://www.w3.org/1999/xlink" xml:space="preserve" xmlns:serif="http://www.serif.com/" style="fill-rule:evenodd;clip-rule:evenodd;stroke-linejoin:round;stroke-miterlimit:2;"><rect id="Página-1" serif:id="Página 1" x="0" y="0" width="4166.667" height="4166.667" style="fill:none;"/><g id="Camada-1" serif:id="Camada 1"><path d="M1213.275,1106.859l308.167,0c102.171,0 185.087,-82.921 185.087,-185.088c0,-102.167 -82.917,-185.087 -185.087,-185.087l-529.9,0c-186.383,0 -302.8,201.746 -209.704,363.325l288.55,499.733l427.362,0l-284.475,-492.883Z" style="fill:#f8fffd;fill-rule:nonzero;"/><path d="M2076.704,2602.356l-258.196,-447.354l516.392,0l-258.196,447.354Zm1085.162,-1865.671l-529.904,0c-102.167,0 -185.083,82.917 -185.083,185.087c0,102.167 82.917,185.088 185.083,185.088l308.171,0l-284.479,492.883l-106.979,185.083l-1371.492,0l106.979,185.088l106.796,185.087l476.042,824.375c93.1,161.583 326.308,161.583 419.408,0l476.042,-824.375l106.796,-185.087l106.979,-185.088l106.796,-185.083l288.55,-499.733c93.096,-161.583 -23.321,-363.325 -209.704,-363.325" style="fill:#f8fffd;fill-rule:nonzero;"/><path d="M1984.159,1565.687c27.208,15.733 58.858,24.8 92.546,24.8c33.683,0 65.333,-9.067 92.542,-24.8c55.342,-32.021 92.542,-91.804 92.542,-160.287l0,-971.7c0,-68.483 -37.2,-128.267 -92.542,-160.287c-27.208,-15.733 -58.858,-24.8 -92.542,-24.8c-33.687,0 -65.337,9.067 -92.546,24.8c-55.338,32.021 -92.542,91.804 -92.542,160.287l0,971.7c0,68.483 37.204,128.267 92.542,160.287" style="fill:#00cfd1;fill-rule:nonzero;"/><path d="M2338.99,3566.962l-62.025,0l0,-162.379l62.025,0c52.208,0 82.229,29.171 82.229,80.15c0,51.454 -30.775,82.229 -82.229,82.229m4.908,-233.471l-144.254,0l0,508.671l77.321,0l0,-204.204l66.933,0c93.275,0 156.058,-61.554 156.058,-153.225c0,-93.275 -59.858,-151.242 -156.058,-151.242" style="fill:#00cfd1;fill-rule:nonzero;"/><path d="M2720.774,3780.135c-71.75,0 -121.879,-53.246 -121.879,-129.621c0,-75.054 51.262,-129.625 121.879,-129.625c71.467,0 123.296,54.571 123.296,129.625c0,75.146 -51.829,129.621 -123.296,129.621m0.754,-330.238c-114.042,0 -200.05,86.287 -200.05,200.617c0,116.308 83.833,200.708 199.296,200.708c114.046,0 199.954,-86.288 199.954,-200.708c0,-114.329 -85.625,-200.617 -199.2,-200.617" style="fill:#00cfd1;fill-rule:nonzero;"/><path d="M3341.475,3733.678c-11.308,-34.708 -35.408,-108.908 -86.792,-267.521l-2.342,-7.229l-69.537,0l-2.35,7.208c-51.762,158.633 -76.042,232.833 -87.429,267.542l-87.3,-274.75l-82.117,0l128.971,383.229l75.642,0l89.308,-265.354l88.667,265.354l75.642,0l129.704,-383.229l-82.117,0l-87.95,274.75Z" style="fill:#00cfd1;fill-rule:nonzero;"/><path d="M3596.31,3610.862c8.308,-53.625 51.642,-92.708 104.792,-92.708c43.996,0 96.296,24.546 104.321,92.708l-209.113,0Zm104.792,-160.967c-106.021,0 -186.075,86.858 -186.075,202.033c0,117.35 80.812,199.296 196.554,199.296c101.3,0 147.088,-64.196 158.796,-83.833l4.812,-8.217l-52.396,-38.329l-6.137,8.592c-16.992,23.792 -48.9,52.112 -104.412,52.112c-68.633,0 -114.517,-42.292 -119.425,-108.662l289.171,0l0.942,-9.442c0.471,-5 0.754,-10.95 0.754,-17.746c0,-117.162 -73.446,-195.804 -182.583,-195.804" style="fill:#00cfd1;fill-rule:nonzero;"/><path d="M4105.195,3449.868c-43.167,0 -76.675,18.825 -97.55,42.596l0,-33.537l-75.246,0l0,383.229l75.946,0l0,-183.95c0,-89.088 31.679,-132.392 96.85,-132.392l10.45,0l0,-75.946l-10.45,0Z" style="fill:#00cfd1;fill-rule:nonzero;"/><path d="M153.964,3738.631l61.104,0c32.317,0 60.208,-6.529 83.683,-19.592c23.462,-13.054 41.729,-31.433 54.792,-55.125c13.058,-23.683 19.596,-51.475 19.596,-83.354c0,-32.317 -6.538,-60.213 -19.596,-83.683c-13.062,-23.467 -31.329,-41.617 -54.792,-54.463c-23.475,-12.837 -51.367,-19.262 -83.683,-19.262l-61.104,0l0,315.479Zm-102.946,89.662l0,-494.8l161.392,0c53.571,0 100.062,10.625 139.475,31.875c39.404,21.254 69.958,50.479 91.658,87.671c21.688,37.196 32.542,79.7 32.542,127.521c0,47.817 -10.854,90.442 -32.542,127.85c-21.7,37.421 -52.254,66.75 -91.658,88c-39.413,21.254 -85.904,31.883 -139.475,31.883l-161.392,0Z" style="fill:#f8fffd;fill-rule:nonzero;"/><path d="M534.533,3465.658l99.625,0l0,362.633l-99.625,0l0,-362.633Zm0,-132.167l99.625,0l0,99.625l-99.625,0l0,-99.625Z" style="fill:#f8fffd;fill-rule:nonzero;"/><path d="M881.885,3720.035c16.825,0 31.433,-3.537 43.837,-10.629c12.392,-7.075 22.025,-17.037 28.888,-29.883c6.862,-12.838 10.296,-27.9 10.296,-45.167c0,-17.267 -3.55,-32.429 -10.625,-45.496c-7.087,-13.054 -16.833,-23.246 -29.221,-30.55c-12.404,-7.308 -26.8,-10.958 -43.175,-10.958c-16.829,0 -31.771,3.65 -44.829,10.958c-13.062,7.304 -23.246,17.496 -30.55,30.55c-7.308,13.067 -10.958,28.229 -10.958,45.496c0,16.833 3.65,31.663 10.958,44.5c7.304,12.846 17.488,22.913 30.55,30.221c13.058,7.304 28,10.958 44.829,10.958m3.321,254.371c-27.892,0 -53.796,-4.646 -77.704,-13.946c-23.913,-9.296 -44.4,-22.25 -61.438,-38.854c-17.05,-16.604 -29.333,-36.196 -36.858,-58.779l92.317,-32.542c4.867,16.821 14.829,30.108 29.887,39.85c15.046,9.733 32.983,14.613 53.796,14.613c16.379,0 30.554,-2.988 42.508,-8.967c11.954,-5.979 21.138,-14.725 27.562,-26.233c6.413,-11.521 9.629,-25.013 9.629,-40.517l0,-34.492c-6.217,6.033 -15.654,14 -28.558,20.875c-26.775,14.271 -51.479,14.946 -68.408,14.946c-33.65,0 -63.763,-7.638 -90.325,-22.913c-26.567,-15.275 -47.383,-36.3 -62.433,-63.096c-15.054,-26.787 -22.579,-57.221 -22.579,-91.325c0,-34.088 7.525,-64.308 22.579,-90.658c15.05,-26.338 35.638,-47.042 61.771,-62.096c26.121,-15.05 55.788,-22.583 88.996,-22.583c20.737,0 44.183,0.483 68.408,15.608c20.533,12.817 31.754,30.15 37.192,40.237l0,-47.875l92.983,0l0,343.371c0,31.883 -7.75,60.325 -23.242,85.346c-15.508,25.008 -36.646,44.6 -63.429,58.779c-26.796,14.167 -57.679,21.25 -92.654,21.25" style="fill:#f8fffd;fill-rule:nonzero;"/><path d="M1137.592,3465.658l99.625,0l0,362.633l-99.625,0l0,-362.633Zm0,-132.167l99.625,0l0,99.625l-99.625,0l0,-99.625Z" style="fill:#f8fffd;fill-rule:nonzero;"/><path d="M1484.942,3832.277c-43.833,0 -77.817,-11.837 -101.946,-35.533c-24.142,-23.683 -36.196,-56.783 -36.196,-99.292l0,-145.454l-61.108,0l0,-86.337l3.321,0c18.6,0 32.879,-4.65 42.842,-13.946c9.963,-9.3 14.946,-23.246 14.946,-41.846l0,-26.567l99.625,0l0,82.358l85.013,0l0,86.337l-85.013,0l0,138.812c0,12.404 2.208,22.696 6.638,30.883c4.421,8.2 11.292,14.279 20.587,18.267c9.3,3.983 20.812,5.975 34.538,5.975c3.096,0 6.646,-0.217 10.629,-0.662c3.983,-0.438 8.188,-0.883 12.621,-1.329l0,84.35c-6.646,0.883 -14.179,1.762 -22.588,2.654c-8.412,0.883 -16.383,1.329 -23.908,1.329" style="fill:#f8fffd;fill-rule:nonzero;"/><path d="M1702.12,3836.264c-26.133,0 -48.713,-4.212 -67.746,-12.621c-19.042,-8.404 -33.654,-20.475 -43.837,-36.196c-10.192,-15.713 -15.275,-34.421 -15.275,-56.121c0,-20.362 4.65,-38.408 13.946,-54.129c9.3,-15.713 23.583,-28.892 42.842,-39.521c19.263,-10.625 43.275,-18.15 72.062,-22.579c34.121,-9.946 68.246,-19.892 102.367,-29.838c1.846,8.763 3.346,19.438 3.492,31.613c0.217,17.929 -2.571,33.05 -5.571,44.254c-27.454,8.567 -54.904,17.133 -82.358,25.7c-14.171,2.658 -25.017,7.204 -32.542,13.613c-7.533,6.429 -11.287,15.608 -11.287,27.567c0,11.071 4.2,19.704 12.617,25.9c8.404,6.204 18.817,9.3 31.213,9.3c16.379,0 30.771,-3.537 43.175,-10.625c12.388,-7.079 22.017,-16.708 28.888,-28.892c2.246,-3.979 4.121,-8.092 5.633,-12.329c4.6,-12.921 4.629,-24.304 4.663,-27.854c0.446,-46.254 14.429,-76.704 -3.183,-111.225c-5.192,-10.179 -10.3,-15.233 -13.087,-17.625c-10.854,-9.296 -25.575,-13.946 -44.171,-13.946c-17.708,0 -33.317,4.879 -46.821,14.612c-13.513,9.746 -23.358,22.583 -29.554,38.521l-79.7,-37.858c7.075,-20.358 18.371,-37.854 33.871,-52.467c15.492,-14.613 34.087,-25.904 55.787,-33.875c21.692,-7.967 45.383,-11.954 71.071,-11.954c30.546,0 57.554,5.542 81.029,16.604c23.458,11.071 41.725,26.463 54.792,46.158c13.054,19.708 19.592,42.625 19.592,68.742l0,239.1l-92.983,0l0,-58.446c-0.263,21.387 -9.263,32.046 -12.617,35.533c-4.475,4.642 -9.421,7.35 -17.271,11.863c-8.125,4.671 -16.758,8.467 -25.904,11.383c-15.938,5.083 -33.654,7.637 -53.129,7.637" style="fill:#f8fffd;fill-rule:nonzero;"/><rect x="1977.079" y="3325.521" width="99.625" height="502.771" style="fill:#f8fffd;"/></g></svg>