<?xml version="1.0" encoding="UTF-8" standalone="no"?>
<!DOCTYPE svg PUBLIC "-//W3C//DTD SVG 1.1//EN" "http://www.w3.org/Graphics/SVG/1.1/DTD/svg11.dtd">
<svg width="100%" height="100%" viewBox="0 0 1000 1000" version="1.1" xmlns="http://www.w3.org/2000/svg" xmlns:xlink="http://www.w3.org/1999/xlink" xml:space="preserve" xmlns:serif="http://www.serif.com/" style="fill-rule:evenodd;clip-rule:evenodd;stroke-linejoin:round;stroke-miterlimit:2;">
    <g transform="matrix(2.238733,0,0,2.238733,197.249598,343.958881)">
        <path d="M0,-19.219L48.266,-19.219C64.268,-19.219 77.255,-32.206 77.255,-48.208C77.255,-64.21 64.268,-77.197 48.266,-77.197L-34.729,-77.197C-63.92,-77.197 -82.154,-45.599 -67.573,-20.292L-22.379,57.978L44.556,57.978L0,-19.219Z" style="fill:rgb(108,110,112);fill-rule:nonzero;"/>
    </g>
    <g transform="matrix(2.238733,0,0,2.238733,499.999904,359.991117)">
        <path d="M0,207.849L-40.44,137.783L40.44,137.783L0,207.849ZM169.961,-84.358L86.966,-84.358C70.965,-84.358 57.978,-71.371 57.978,-55.369C57.978,-39.367 70.965,-26.38 86.966,-26.38L135.233,-26.38L90.677,50.817L73.922,79.805L-140.885,79.805L-124.13,108.794L-107.404,137.783L-32.845,266.899C-18.263,292.207 18.263,292.207 32.844,266.899L107.404,137.783L124.13,108.794L140.885,79.805L157.612,50.817L202.806,-27.453C217.387,-52.76 199.153,-84.358 169.961,-84.358" style="fill:rgb(108,110,112);fill-rule:nonzero;"/>
    </g>
    <g transform="matrix(2.238733,0,0,2.238733,467.55037,8.695238)">
        <path d="M0,202.4C4.261,204.864 9.219,206.284 14.495,206.284C19.77,206.284 24.728,204.864 28.989,202.4C37.656,197.385 43.483,188.022 43.483,177.296L43.483,25.104C43.483,14.379 37.656,5.015 28.989,-0C24.728,-2.464 19.77,-3.884 14.495,-3.884C9.219,-3.884 4.261,-2.464 0,-0C-8.667,5.015 -14.494,14.379 -14.494,25.104L-14.494,177.296C-14.494,188.022 -8.667,197.385 0,202.4" style="fill:rgb(140,198,63);fill-rule:nonzero;"/>
    </g>
</svg>
